<?xml version="1.0" encoding="UTF-8"?>
<svg version="1.1" xmlns="http://www.w3.org/2000/svg" width="541" height="125">
<path d="M0 0 C178.53 0 357.06 0 541 0 C541 41.25 541 82.5 541 125 C362.47 125 183.94 125 0 125 C0 83.75 0 42.5 0 0 Z " fill="#FDFDFD" transform="translate(0,0)"/>
<path d="M0 0 C31.02 0 62.04 0 94 0 C94 30.69 94 61.38 94 93 C62.98 93 31.96 93 0 93 C0 62.31 0 31.62 0 0 Z " fill="#F1F3F3" transform="translate(12,16)"/>
<path d="M0 0 C4.12475481 -0.11751438 8.24907118 -0.18768824 12.375 -0.25 C13.53128906 -0.28351562 14.68757812 -0.31703125 15.87890625 -0.3515625 C24.68556474 -0.45107277 31.82131689 0.72972626 38.875 6.25 C43.32135023 12.0041003 45.77337991 16.99463648 45.453125 24.40625 C44.43588018 30.22909964 41.73278574 35.12281545 37.75 39.4375 C29.50869172 44.12006152 21.77630536 44.38905695 12.4375 44.1875 C10.63829102 44.16719727 10.63829102 44.16719727 8.80273438 44.14648438 C5.86801121 44.111408 2.93425118 44.06225427 0 44 C0 43.34 0 42.68 0 42 C1.65 41.34 3.3 40.68 5 40 C5 28.12 5 16.24 5 4 C2.525 3.01 2.525 3.01 0 2 C0 1.34 0 0.68 0 0 Z " fill="#498CDA" transform="translate(116,39)"/>
<path d="M0 0 C0.85464844 0.00580078 1.70929687 0.01160156 2.58984375 0.01757812 C6.76833094 0.09906188 9.86170753 0.19438334 13.5 2.4375 C14.9783226 5.39414519 14.56032783 8.17979737 14.5 11.4375 C13.84 11.1075 13.18 10.7775 12.5 10.4375 C12.005 7.9625 12.005 7.9625 11.5 5.4375 C5.56 5.4375 -0.38 5.4375 -6.5 5.4375 C-6.46049276 10.28399196 -6.46049276 10.28399196 -6.40991211 15.13037109 C-6.38888889 20.21527778 -6.38888889 20.21527778 -7.5 22.4375 C-4.78946025 21.67384014 -2.08175857 20.90185752 0.625 20.125 C1.76582031 19.80499023 1.76582031 19.80499023 2.9296875 19.47851562 C7.40356692 18.1864901 11.34373008 16.57447932 15.5 14.4375 C18.3125 14.1875 18.3125 14.1875 20.5 14.4375 C22.84259837 16.78009837 21.99021193 22.60266698 22.02563477 25.85009766 C21.91922916 30.50546529 21.54423509 33.62194892 18.4375 37.3125 C12.84138003 42.31424249 7.58409948 43.8010494 0.22265625 43.54296875 C-0.34582031 43.50816406 -0.91429688 43.47335938 -1.5 43.4375 C-1.17 42.4475 -0.84 41.4575 -0.5 40.4375 C1.64453125 39.4453125 1.64453125 39.4453125 4.3125 38.5625 C8.68568828 36.90305908 11.1842798 35.68298703 13.5 31.4375 C14.35314045 28.77391615 14.94061784 26.1877956 15.5 23.4375 C13.89125 24.1490625 13.89125 24.1490625 12.25 24.875 C7.63999691 26.64175698 3.23497955 26.87702882 -1.66796875 27.03125 C-4.93764564 27.50027951 -6.8499934 28.49258444 -9.5 30.4375 C-10.37822312 32.52283633 -10.37822312 32.52283633 -10.5 34.4375 C-11.49 34.4375 -12.48 34.4375 -13.5 34.4375 C-12.625 27.6875 -12.625 27.6875 -11.5 25.4375 C-15.79 25.4375 -20.08 25.4375 -24.5 25.4375 C-24.5 31.0475 -24.5 36.6575 -24.5 42.4375 C-22.19 42.7675 -19.88 43.0975 -17.5 43.4375 C-17.5 44.0975 -17.5 44.7575 -17.5 45.4375 C-19.10184626 45.5727403 -20.70696626 45.66960847 -22.3125 45.75 C-23.20582031 45.80800781 -24.09914063 45.86601563 -25.01953125 45.92578125 C-27.5 45.4375 -27.5 45.4375 -29.29296875 43.515625 C-30.96509079 39.25144323 -31.01383844 35.41746915 -31 30.875 C-31.02835938 30.02486328 -31.05671875 29.17472656 -31.0859375 28.29882812 C-31.09896891 24.14506596 -31.07905677 22.1351205 -28.36328125 18.86328125 C-25.02097504 17.19896779 -22.89972283 17.02432537 -19.1875 17.1875 C-18.11886719 17.22359375 -17.05023438 17.2596875 -15.94921875 17.296875 C-14.73685547 17.36648437 -14.73685547 17.36648437 -13.5 17.4375 C-13.54640625 16.62925781 -13.5928125 15.82101563 -13.640625 14.98828125 C-13.69476563 13.38533203 -13.69476563 13.38533203 -13.75 11.75 C-13.79640625 10.69425781 -13.8428125 9.63851562 -13.890625 8.55078125 C-12.79946082 -0.14579723 -7.37706364 -0.28373322 0 0 Z " fill="#2C91CD" transform="translate(57.5,30.5625)"/>
<path d="M0 0 C4.16601968 1.33627046 5.68653817 2.59579923 8.375 6.0625 C10.64915378 10.58214176 10.78529901 15.05816884 10 20 C8.71311938 23.68171728 6.77242632 26.29572894 3.875 28.9375 C-0.49063939 30.55088847 -4.41680556 30.87808866 -9 30 C-13.06701811 27.83241343 -15.42430132 25.17642773 -17.4375 21.0625 C-18.58292966 14.82627186 -18.52771539 10.40916361 -15 5 C-10.32477998 -0.12047907 -6.61776464 -1.05741661 0 0 Z " fill="#3E85D8" transform="translate(365,53)"/>
<path d="M0 0 C11.88 0 23.76 0 36 0 C36 3.96 36 7.92 36 12 C34 11 34 11 33.125 8.5625 C32.25265371 5.95075291 32.25265371 5.95075291 30.3203125 4.87890625 C27.42922435 3.7837971 24.83130377 3.57595459 21.75 3.375 C19.8525 3.25125 17.955 3.1275 16 3 C16 8.94 16 14.88 16 21 C22.73706952 19.51103874 22.73706952 19.51103874 26 15 C26.66 14.01 27.32 13.02 28 12 C28 18.93 28 25.86 28 33 C27.34 31.68 26.68 30.36 26 29 C22.91291582 25.50672054 21.6025439 24.15063598 17 23 C17.33 28.94 17.66 34.88 18 41 C19.65 41.33 21.3 41.66 23 42 C23 42.66 23 43.32 23 44 C15.41 44 7.82 44 0 44 C0 43.34 0 42.68 0 42 C2.475 41.505 2.475 41.505 5 41 C5 28.46 5 15.92 5 3 C3.35 2.67 1.7 2.34 0 2 C0 1.34 0 0.68 0 0 Z " fill="#4A8DDA" transform="translate(291,39)"/>
<path d="M0 0 C6.42088246 -0.4845949 6.42088246 -0.4845949 8.69921875 1.421875 C10.69200927 5.37154991 10.51316289 9.13650213 10.5 13.5 C10.52835938 14.35464844 10.55671875 15.20929688 10.5859375 16.08984375 C10.59887382 20.2359352 10.57663711 22.29391375 7.89453125 25.578125 C2.69114961 28.13417212 -2.29040671 27.23069064 -8 27 C-8 32.28 -8 37.56 -8 43 C-13.91483231 45.95741616 -16.37981028 46.49689702 -22.5625 46.4375 C-23.6752832 46.4674707 -23.6752832 46.4674707 -24.81054688 46.49804688 C-28.72124335 46.49456451 -30.58820393 46.26422225 -33.96484375 44.09765625 C-38.10994653 39.82525665 -37.2693497 35.32796615 -37.2109375 29.62109375 C-36.83260559 23.12639596 -35.48451413 18.24552385 -31 13.4375 C-28 11 -28 11 -25 11 C-26.12711096 13.25422193 -27.2601065 15.43177679 -28.5625 17.59375 C-30.36969961 21.87602734 -30.33892597 25.29339385 -30.1875 29.875 C-30.17396484 30.65875 -30.16042969 31.4425 -30.14648438 32.25 C-30.11141789 34.16696782 -30.05762072 36.08357751 -30 38 C-24.72 38.33 -19.44 38.66 -14 39 C-14.0825 36.7725 -14.165 34.545 -14.25 32.25 C-14.48965025 25.77944325 -14.48965025 25.77944325 -12.46875 22.5625 C-9.09195612 20.42528868 -6.10575303 20.56049229 -2.25 20.75 C-1.55261719 20.76804687 -0.85523438 20.78609375 -0.13671875 20.8046875 C1.57611539 20.85161446 3.28823824 20.92335395 5 21 C4.98839844 20.38253906 4.97679687 19.76507813 4.96484375 19.12890625 C4.90300337 13.32474456 5.25721044 7.75661912 6 2 C4.02 1.67 2.04 1.34 0 1 C0 0.67 0 0.34 0 0 Z " fill="#2A90CD" transform="translate(82,51)"/>
<path d="M0 0 C9.01967131 -0.18426295 9.01967131 -0.18426295 13 3 C17.215455 7.81766285 17.2377342 12.5218141 17.3125 18.6875 C17.34150391 19.46544922 17.37050781 20.24339844 17.40039062 21.04492188 C17.46134342 26.66664526 16.5160842 31.46583188 13 36 C8.87054233 38.48249498 5.73758396 38.23299593 1 38 C0 37 0 37 -0.11352539 33.48999023 C-0.11336626 31.92951578 -0.10767142 30.36903607 -0.09765625 28.80859375 C-0.0962413 27.98875504 -0.09482635 27.16891632 -0.09336853 26.32423401 C-0.08775289 23.69528618 -0.07519779 21.06642227 -0.0625 18.4375 C-0.05748701 16.65950643 -0.05292376 14.88151154 -0.04882812 13.10351562 C-0.03777839 8.73564455 -0.02050331 4.36783652 0 0 Z " fill="#FCFCFD" transform="translate(132,42)"/>
<path d="M0 0 C2 1.625 2 1.625 3 3.625 C3.08400529 5.21947464 3.10727467 6.81740545 3.09765625 8.4140625 C3.09443359 9.35507812 3.09121094 10.29609375 3.08789062 11.265625 C3.07951172 12.25046875 3.07113281 13.2353125 3.0625 14.25 C3.05798828 15.24257812 3.05347656 16.23515625 3.04882812 17.2578125 C3.03702145 19.7136016 3.020554 22.16927104 3 24.625 C3.99 24.625 4.98 24.625 6 24.625 C5 27.625 5 27.625 3 28.625 C-3.39889197 29.09037396 -3.39889197 29.09037396 -5.9375 27.125 C-6.288125 26.63 -6.63875 26.135 -7 25.625 C-7.515625 26.12 -8.03125 26.615 -8.5625 27.125 C-11.88796936 29.17144269 -14.16306413 29.04357482 -18 28.625 C-19.9375 27.5 -19.9375 27.5 -21 25.625 C-21.625 22.8125 -21.625 22.8125 -21 19.625 C-17.51045846 15.47364886 -12.96950039 12.70525598 -8 10.625 C-7.34 10.625 -6.68 10.625 -6 10.625 C-6.144375 9.325625 -6.28875 8.02625 -6.4375 6.6875 C-6.55931641 5.59115234 -6.55931641 5.59115234 -6.68359375 4.47265625 C-6.81886614 2.61359771 -6.81886614 2.61359771 -8 1.625 C-9.66617115 1.58436168 -11.33388095 1.582279 -13 1.625 C-12.79375 2.73875 -12.5875 3.8525 -12.375 5 C-12.25125 6.19625 -12.1275 7.3925 -12 8.625 C-14 10.625 -14 10.625 -16.5 10.875 C-19 10.625 -19 10.625 -21 8.625 C-20.83107651 5.41545376 -20.21262139 3.88894379 -18.1875 1.375 C-13.2395151 -2.58338792 -5.59663476 -2.56512426 0 0 Z " fill="#3F86D8" transform="translate(266,54.375)"/>
<path d="M0 0 C4.29 0 8.58 0 13 0 C13 0.66 13 1.32 13 2 C12.34 2 11.68 2 11 2 C11.2165625 2.59167969 11.433125 3.18335938 11.65625 3.79296875 C14.42179262 11.64147627 14.42179262 11.64147627 14 16 C14.66 16 15.32 16 16 16 C16.144375 15.113125 16.28875 14.22625 16.4375 13.3125 C17 10 17 10 17.75 7.3125 C17.8325 6.549375 17.915 5.78625 18 5 C16.62485459 3.2912354 16.62485459 3.2912354 15 2 C15 1.34 15 0.68 15 0 C19.95 0 24.9 0 30 0 C30 0.66 30 1.32 30 2 C29.01 2 28.02 2 27 2 C27.2165625 2.60328125 27.433125 3.2065625 27.65625 3.828125 C27.9346875 4.62734375 28.213125 5.4265625 28.5 6.25 C28.7784375 7.03890625 29.056875 7.8278125 29.34375 8.640625 C30 11 30 11 30 15 C30.66 15 31.32 15 32 15 C32.36315666 13.0641649 32.71522731 11.12624752 33.0625 9.1875 C33.25972656 8.10855469 33.45695312 7.02960937 33.66015625 5.91796875 C34.21580075 2.94098219 34.21580075 2.94098219 33 0 C34.98 0 36.96 0 39 0 C35.66666667 10 32.33333333 20 29 30 C26 29 26 29 25.10864258 27.23413086 C24.75515747 26.11083374 24.75515747 26.11083374 24.39453125 24.96484375 C24.15839111 24.23644287 23.92225098 23.50804199 23.67895508 22.75756836 C23.25005981 21.36163452 23.25005981 21.36163452 22.8125 19.9375 C21.884375 16.988125 20.95625 14.03875 20 11 C17.69 17.27 15.38 23.54 13 30 C12.34 30 11.68 30 11 30 C9.59352856 26.20994963 8.18770245 22.41966058 6.7824707 18.62915039 C6.30445752 17.34002227 5.82626887 16.05095921 5.34790039 14.76196289 C4.65985591 12.90788663 3.97249723 11.05355592 3.28515625 9.19921875 C2.66459351 7.52605591 2.66459351 7.52605591 2.03149414 5.8190918 C1.32553339 3.88968853 0.64969051 1.94907152 0 0 Z " fill="#4388D9" transform="translate(377,53)"/>
<path d="M0 0 C2.62846975 2.03845311 3.84208308 3.24511201 4.5300293 6.53369141 C4.54461182 7.46358887 4.55919434 8.39348633 4.57421875 9.3515625 C4.60193359 10.36734375 4.62964844 11.383125 4.65820312 12.4296875 C4.66787109 13.48414062 4.67753906 14.53859375 4.6875 15.625 C4.72947947 17.7214292 4.77487909 19.8177936 4.82421875 21.9140625 C4.83541748 22.8417041 4.84661621 23.7693457 4.8581543 24.72509766 C4.85330184 27.03217464 4.85330184 27.03217464 6 29 C2.04 29 -1.92 29 -6 29 C-5.67 28.34 -5.34 27.68 -5 27 C-4.91573906 25.3325394 -4.89274857 23.66174813 -4.90234375 21.9921875 C-4.90717773 20.51298828 -4.90717773 20.51298828 -4.91210938 19.00390625 C-4.92048828 17.97136719 -4.92886719 16.93882813 -4.9375 15.875 C-4.94201172 14.83472656 -4.94652344 13.79445313 -4.95117188 12.72265625 C-4.96298048 10.14838038 -4.97944925 7.57421854 -5 5 C-8.29075996 5.37904208 -8.29075996 5.37904208 -11 7 C-11.08669432 8.4887186 -11.10703494 9.981445 -11.09765625 11.47265625 C-11.09443359 12.37177734 -11.09121094 13.27089844 -11.08789062 14.19726562 C-11.07951172 15.14279297 -11.07113281 16.08832031 -11.0625 17.0625 C-11.05798828 18.01189453 -11.05347656 18.96128906 -11.04882812 19.93945312 C-11.0370011 22.29303065 -11.02052025 24.64648477 -11 27 C-10.34 27.33 -9.68 27.66 -9 28 C-9 28.66 -9 29.32 -9 30 C-13.62 30 -18.24 30 -23 30 C-23 29.34 -23 28.68 -23 28 C-22.34 27.67 -21.68 27.34 -21 27 C-20.97107143 23.04168191 -20.95322573 19.08339083 -20.9375 15.125 C-20.92912109 13.99707031 -20.92074219 12.86914062 -20.91210938 11.70703125 C-20.90888672 10.63066406 -20.90566406 9.55429687 -20.90234375 8.4453125 C-20.89710693 7.45031738 -20.89187012 6.45532227 -20.88647461 5.43017578 C-20.8360585 2.99039227 -20.8360585 2.99039227 -22 1 C-18.7 1 -15.4 1 -12 1 C-11.67 1.66 -11.34 2.32 -11 3 C-10.484375 2.505 -9.96875 2.01 -9.4375 1.5 C-6.0761612 -0.56851618 -3.88040089 -0.48505011 0 0 Z " fill="#3B83D7" transform="translate(214,53)"/>
<path d="M0 0 C6.93 0 13.86 0 21 0 C21 0.66 21 1.32 21 2 C18.69 2 16.38 2 14 2 C14.33 14.21 14.66 26.42 15 39 C17.64 39.33 20.28 39.66 23 40 C22.67 40.66 22.34 41.32 22 42 C14.74 42 7.48 42 0 42 C0.99 41.01 1.98 40.02 3 39 C3.29825343 36.23580967 3.42044886 33.70151406 3.3984375 30.9375 C3.40130768 30.14980225 3.40417786 29.36210449 3.40713501 28.55053711 C3.40917522 26.88622315 3.40364832 25.22188519 3.39111328 23.55761719 C3.37505809 21.00922053 3.39096244 18.46240979 3.41015625 15.9140625 C3.40817381 14.2968715 3.40433011 12.67968148 3.3984375 11.0625 C3.40754654 9.91865845 3.40754654 9.91865845 3.4168396 8.75170898 C3.35743306 4.28615953 3.3060603 3.3060603 0 0 Z " fill="#3F86D8" transform="translate(118,40)"/>
<path d="M0 0 C4.1657644 1.7588783 6.17507027 3.86989588 8 8 C8 9.98 8 11.96 8 14 C2.72 14 -2.56 14 -8 14 C-7.525625 15.464375 -7.05125 16.92875 -6.5625 18.4375 C-6.29566406 19.26121094 -6.02882812 20.08492187 -5.75390625 20.93359375 C-5.17844506 22.96219588 -5.17844506 22.96219588 -4 24 C0.03083011 24.32460261 0.03083011 24.32460261 4 24 C4.66 23.01 5.32 22.02 6 21 C6.66 21 7.32 21 8 21 C6.64367505 25.43888167 5.07570828 27.70741409 1 30 C-3.88152815 30.79485409 -7.68608927 30.76644793 -12 28.25 C-16.49264171 23.19577808 -16.4238876 18.73983825 -16.3203125 12.140625 C-15.87979358 7.82139072 -14.96299557 6.12760643 -12 3 C-11.4225 2.38125 -10.845 1.7625 -10.25 1.125 C-6.87689892 -0.56155054 -3.65178466 -0.53103641 0 0 Z " fill="#4087D8" transform="translate(181,53)"/>
<path d="M0 0 C2.34259837 2.34259837 1.49021193 8.16516698 1.52563477 11.41259766 C1.41922916 16.06796529 1.04423509 19.18444892 -2.0625 22.875 C-7.65861997 27.87674249 -12.91590052 29.3635494 -20.27734375 29.10546875 C-20.84582031 29.07066406 -21.41429687 29.03585938 -22 29 C-21.67 28.01 -21.34 27.02 -21 26 C-18.85546875 25.0078125 -18.85546875 25.0078125 -16.1875 24.125 C-11.81431172 22.46555908 -9.3157202 21.24548703 -7 17 C-6.14685955 14.33641615 -5.55938216 11.7502956 -5 9 C-6.60875 9.7115625 -6.60875 9.7115625 -8.25 10.4375 C-12.86000309 12.20425698 -17.26502045 12.43952882 -22.16796875 12.59375 C-25.43764564 13.06277951 -27.3499934 14.05508444 -30 16 C-30.87822312 18.08533633 -30.87822312 18.08533633 -31 20 C-31.99 20 -32.98 20 -34 20 C-33.68554487 17.66404762 -33.3496418 15.33094534 -33 13 C-32.896875 12.236875 -32.79375 11.47375 -32.6875 10.6875 C-32 9 -32 9 -30.375 7.98046875 C-27.39538556 6.75039766 -24.48054196 6.21748309 -21.3125 5.625 C-16.06970348 4.56227098 -11.62788868 3.12512911 -6.83984375 0.7890625 C-4.46970826 -0.22742873 -2.54191294 -0.3971739 0 0 Z " fill="#50CABE" transform="translate(78,45)"/>
<path d="M0 0 C4.29 0 8.58 0 13 0 C13.02505615 1.23153809 13.0501123 2.46307617 13.07592773 3.73193359 C13.16992612 8.29047493 13.27016515 12.84886118 13.37231445 17.40722656 C13.41569203 19.38212462 13.457365 21.35706087 13.49731445 23.33203125 C13.55494873 26.1667839 13.6186627 29.00134378 13.68359375 31.8359375 C13.70030624 32.72243988 13.71701874 33.60894226 13.73423767 34.52230835 C13.71085211 38.89925155 13.71085211 38.89925155 15 43 C10.38 43 5.76 43 1 43 C1.66 42.34 2.32 41.68 3 41 C3.17532289 38.13111419 3.23137614 35.36007355 3.1953125 32.4921875 C3.1924826 31.65156769 3.18965271 30.81094788 3.18673706 29.94485474 C3.1755243 27.25475954 3.15041803 24.5649949 3.125 21.875 C3.1149716 20.05339022 3.10584551 18.23177523 3.09765625 16.41015625 C3.07558142 11.93997642 3.04104434 7.47004429 3 3 C2.01 2.67 1.02 2.34 0 2 C0 1.34 0 0.68 0 0 Z " fill="#4288D9" transform="translate(274,39)"/>
<path d="M0 0 C4.29 0 8.58 0 13 0 C13 13.86 13 27.72 13 42 C13.66 42.33 14.32 42.66 15 43 C10.38 43 5.76 43 1 43 C1.66 42.34 2.32 41.68 3 41 C3.17532289 38.13111419 3.23137614 35.36007355 3.1953125 32.4921875 C3.1924826 31.65156769 3.18965271 30.81094788 3.18673706 29.94485474 C3.1755243 27.25475954 3.15041803 24.5649949 3.125 21.875 C3.1149716 20.05339022 3.10584551 18.23177523 3.09765625 16.41015625 C3.07558142 11.93997642 3.04104434 7.47004429 3 3 C2.01 2.67 1.02 2.34 0 2 C0 1.34 0 0.68 0 0 Z " fill="#4288D9" transform="translate(329,39)"/>
<path d="M0 0 C0.66 0 1.32 0 2 0 C2 3.3 2 6.6 2 10 C4.31 10 6.62 10 9 10 C9 11.32 9 12.64 9 14 C6.69 14 4.38 14 2 14 C2.33 21.26 2.66 28.52 3 36 C3.99 36 4.98 36 6 36 C6.66 35.34 7.32 34.68 8 34 C7.6875 35.875 7.6875 35.875 7 38 C3.30513897 40.46324069 1.36706908 40.38991688 -3 40 C-5.10358381 38.45737187 -5.84054159 37.31891683 -7 35 C-7.08400529 33.40552536 -7.10727467 31.80759455 -7.09765625 30.2109375 C-7.09282227 28.79941406 -7.09282227 28.79941406 -7.08789062 27.359375 C-7.07951172 26.37453125 -7.07113281 25.3896875 -7.0625 24.375 C-7.05798828 23.38242188 -7.05347656 22.38984375 -7.04882812 21.3671875 C-7.03702145 18.9113984 -7.020554 16.45572896 -7 14 C-7.99 14 -8.98 14 -10 14 C-8.56975239 10.79452042 -6.79566927 8.4645554 -4.4375 5.875 C-1.92320784 3.13961955 -1.92320784 3.13961955 0 0 Z " fill="#4389D9" transform="translate(233,43)"/>
<path d="M0 0 C-0.57536106 5.1088094 -1.06045017 8.9195177 -4.5 12.875 C-8.57566893 15.72391286 -13.34164791 17.35208493 -18 19 C-18.33 18.67 -18.66 18.34 -19 18 C-20.53266582 21.06533164 -20.10276471 24.26754272 -20.0625 27.625 C-20.05573242 28.68460938 -20.05573242 28.68460938 -20.04882812 29.765625 C-20.03703875 31.51045275 -20.01910324 33.255237 -20 35 C-15.38 35 -10.76 35 -6 35 C-6 31.7 -6 28.4 -6 25 C-5.67 25 -5.34 25 -5 25 C-5 28.63 -5 32.26 -5 36 C-7.64590014 36.02684679 -10.29153096 36.04676357 -12.9375 36.0625 C-13.69224609 36.07087891 -14.44699219 36.07925781 -15.22460938 36.08789062 C-17.14994313 36.09652441 -19.07535581 36.05224333 -21 36 C-23.31228146 33.68771854 -22.42494495 27.94273825 -22.47070312 24.73461914 C-22.36177486 17.92301942 -20.36374308 13.28584355 -16 8 C-16.66 7.67 -17.32 7.34 -18 7 C-17.67 6.67 -17.34 6.34 -17 6 C-19.31 6 -21.62 6 -24 6 C-23 4 -23 4 -20 3 C-18.06499882 2.8240908 -16.12680049 2.68202921 -14.1875 2.5625 C-9.36379813 2.20086818 -4.64120491 0 0 0 Z " fill="#DDEBEE" transform="translate(73,54)"/>
<path d="M0 0 C2.375 0.3125 2.375 0.3125 5 1 C7.70590023 5.05885034 7.33132354 8.1751454 7.3125 12.9375 C7.32861328 13.74896484 7.34472656 14.56042969 7.36132812 15.39648438 C7.36623785 21.38144404 7.36623785 21.38144404 5.48046875 24.56640625 C4.99191406 25.03949219 4.50335938 25.51257813 4 26 C1.625 25.8125 1.625 25.8125 -1 25 C-3.24797299 20.91068395 -3.29869683 17.10105674 -3.3125 12.5 C-3.32925781 11.2109375 -3.34601563 9.921875 -3.36328125 8.59375 C-2.98695084 4.87091158 -2.17874312 2.98930454 0 0 Z " fill="#F2F7FB" transform="translate(359,55)"/>
<path d="M0 0 C0.33 0 0.66 0 1 0 C1 1.65 1 3.3 1 5 C3.64 5.66 6.28 6.32 9 7 C9.10349817 13.41688675 8.74507544 19.62694402 8 26 C6.96359375 26.03738281 5.9271875 26.07476562 4.859375 26.11328125 C3.48954816 26.17895788 2.11975809 26.24540464 0.75 26.3125 C0.06808594 26.33505859 -0.61382812 26.35761719 -1.31640625 26.38085938 C-5.45151296 26.60166604 -7.97914434 27.09593 -11 30 C-11 29.34 -11 28.68 -11 28 C-11.99 27.67 -12.98 27.34 -14 27 C-13.48050781 26.78085938 -12.96101563 26.56171875 -12.42578125 26.3359375 C-11.72839844 26.01882812 -11.03101562 25.70171875 -10.3125 25.375 C-9.62800781 25.07335937 -8.94351563 24.77171875 -8.23828125 24.4609375 C-4.49740923 22.0192514 -1.54907339 19.3326719 -0.51049805 14.92041016 C-0.28796363 12.64411537 -0.20494183 10.41181831 -0.1875 8.125 C-0.16236328 7.34125 -0.13722656 6.5575 -0.11132812 5.75 C-0.05290936 3.83386445 -0.02348074 1.91688207 0 0 Z " fill="#EBF1F1" transform="translate(79,46)"/>
<path d="M0 0 C-1 3 -1 3 -3.625 5.4375 C-4.40875 6.283125 -5.1925 7.12875 -6 8 C-5.95502158 10.27523089 -5.95502158 10.27523089 -5 12 C-3.35 12 -1.7 12 0 12 C0 12.99 0 13.98 0 15 C-2.92239362 17.39104932 -4.84927234 17.98440748 -8.625 18.375 C-12 18 -12 18 -13.9375 16.875 C-15.61176855 13.92040844 -15.65622046 12.34672433 -15 9 C-11.5052102 4.84240523 -5.60685642 0 0 0 Z " fill="#3E85D8" transform="translate(260,65)"/>
<path d="M0 0 C4.875 0.875 4.875 0.875 6 2 C6.14115161 4.67058851 6.04247107 7.32432238 6 10 C3.36 10 0.72 10 -2 10 C-2.25 3.375 -2.25 3.375 0 0 Z " fill="#F8FAFC" transform="translate(175,55)"/>
<path d="M0 0 C4.66823751 2.27426956 4.66823751 2.27426956 6 5.1875 C6 9.18218558 4.59065659 12.37833556 3 16 C2.34 16 1.68 16 1 16 C0.49528803 14.23050388 -0.00360685 12.45934777 -0.5 10.6875 C-0.7784375 9.70136719 -1.056875 8.71523438 -1.34375 7.69921875 C-2 5 -2 5 -2 2 C-1.34 2 -0.68 2 0 2 C0 1.34 0 0.68 0 0 Z " fill="#F1F6FB" transform="translate(390,53)"/>
<path d="M0 0 C0.38909985 1.45463481 0.76088029 2.91391207 1.125 4.375 C1.43824219 5.59316406 1.43824219 5.59316406 1.7578125 6.8359375 C1.83773437 7.55007812 1.91765625 8.26421875 2 9 C0 11 0 11 -2.5 11.25 C-5 11 -5 11 -7 9 C-6.82624516 5.69865812 -6.19905231 4.23757856 -4.0625 1.6875 C-2 0 -2 0 0 0 Z " fill="#4288D9" transform="translate(252,54)"/>
<path d="M0 0 C0 3.3 0 6.6 0 10 C-2.375 10.625 -2.375 10.625 -5 11 C-5.66 10.34 -6.32 9.68 -7 9 C-6.9375 6.625 -6.9375 6.625 -6 4 C-1.67567568 0 -1.67567568 0 0 0 Z " fill="#F4F7FC" transform="translate(260,67)"/>
<path d="M0 0 C0.33 0 0.66 0 1 0 C1.10349817 6.41688675 0.74507544 12.62694402 0 19 C-1.03640625 19.03738281 -2.0728125 19.07476562 -3.140625 19.11328125 C-4.51045184 19.17895788 -5.88024191 19.24540464 -7.25 19.3125 C-7.93191406 19.33505859 -8.61382812 19.35761719 -9.31640625 19.38085938 C-13.45151296 19.60166604 -15.97914434 20.09593 -19 23 C-19 22.34 -19 21.68 -19 21 C-19.99 20.67 -20.98 20.34 -22 20 C-21.45730469 19.73445313 -20.91460937 19.46890625 -20.35546875 19.1953125 C-19.64003906 18.84210938 -18.92460938 18.48890625 -18.1875 18.125 C-17.47980469 17.77695313 -16.77210937 17.42890625 -16.04296875 17.0703125 C-13.78753582 15.9343514 -13.78753582 15.9343514 -11 14 C-11.33 14.99 -11.66 15.98 -12 17 C-8.37 17.33 -4.74 17.66 -1 18 C-1.020625 16.329375 -1.04125 14.65875 -1.0625 12.9375 C-1.06822976 8.50266359 -0.77525771 4.3608246 0 0 Z " fill="#C3DFE8" transform="translate(87,53)"/>
<path d="M0 0 C5.94 0 11.88 0 18 0 C18.66 1.98 19.32 3.96 20 6 C19.34 6 18.68 6 18 6 C17.67 4.35 17.34 2.7 17 1 C11.72 1 6.44 1 1 1 C1 5.62 1 10.24 1 15 C2.32 15.33 3.64 15.66 5 16 C3.02 16.33 1.04 16.66 -1 17 C-0.67 11.39 -0.34 5.78 0 0 Z " fill="#CFE2ED" transform="translate(51,36)"/>
<path d="M0 0 C-0.99 1.32 -1.98 2.64 -3 4 C-3 3.01 -3 2.02 -3 1 C-6.3 1 -9.6 1 -13 1 C-13 5.95 -13 10.9 -13 16 C-11.02 16.33 -9.04 16.66 -7 17 C-7 17.33 -7 17.66 -7 18 C-9.31 17.67 -11.62 17.34 -14 17 C-14 11.39 -14 5.78 -14 0 C-3.375 -1.125 -3.375 -1.125 0 0 Z " fill="#CCE0EC" transform="translate(47,56)"/>
<path d="M0 0 C0.66 0.33 1.32 0.66 2 1 C1.67 1.598125 1.34 2.19625 1 2.8125 C-0.20787988 5.05386471 -0.20787988 5.05386471 0 8 C-0.62599617 9.68236471 -1.28752268 11.3523962 -2 13 C-2.99 13 -3.98 13 -5 13 C-3.81570997 4.20241692 -3.81570997 4.20241692 -3 2 C-2.01 1.34 -1.02 0.68 0 0 Z " fill="#69CEC7" transform="translate(49,52)"/>
<path d="M0 0 C1.98 0 3.96 0 6 0 C4.33333333 5 2.66666667 10 1 15 C0.34 14.67 -0.32 14.34 -1 14 C-0.84402344 13.24074219 -0.68804687 12.48148438 -0.52734375 11.69921875 C-0.23537109 10.20841797 -0.23537109 10.20841797 0.0625 8.6875 C0.25972656 7.70136719 0.45695312 6.71523438 0.66015625 5.69921875 C1.20922216 2.90723539 1.20922216 2.90723539 0 0 Z " fill="#5191DB" transform="translate(410,53)"/>
<path d="M0 0 C2.31 0 4.62 0 7 0 C7.66 1.32 8.32 2.64 9 4 C8.67 4 8.34 4 8 4 C7.34 9.61 6.68 15.22 6 21 C5.67 21 5.34 21 5 21 C4.87913782 14.56744599 5.17648136 8.38226945 6 2 C3.03 1.505 3.03 1.505 0 1 C0 0.67 0 0.34 0 0 Z " fill="#479ED2" transform="translate(82,51)"/>
<path d="M0 0 C-1.15173355 2.46800047 -2.04783565 4.04783565 -4 6 C-6.125 5.625 -6.125 5.625 -8 5 C-3.375 0 -3.375 0 0 0 Z " fill="#3E99D0" transform="translate(57,62)"/>
<path d="M0 0 C-0.99 1.32 -1.98 2.64 -3 4 C-3 3.01 -3 2.02 -3 1 C-6.3 1 -9.6 1 -13 1 C-13 0.67 -13 0.34 -13 0 C-11.39679026 -0.19551338 -9.79237014 -0.38111983 -8.1875 -0.5625 C-7.29417969 -0.66691406 -6.40085937 -0.77132812 -5.48046875 -0.87890625 C-3 -1 -3 -1 0 0 Z " fill="#DAE9ED" transform="translate(47,56)"/>
<path d="M0 0 C0.33 0 0.66 0 1 0 C1 3.63 1 7.26 1 11 C2.32 11.33 3.64 11.66 5 12 C3.02 12.33 1.04 12.66 -1 13 C-0.67 8.71 -0.34 4.42 0 0 Z " fill="#B6D8E6" transform="translate(51,40)"/>
<path d="M0 0 C2.31 0 4.62 0 7 0 C7.66 1.32 8.32 2.64 9 4 C6.03 3.01 3.06 2.02 0 1 C0 0.67 0 0.34 0 0 Z " fill="#59A7D5" transform="translate(82,51)"/>
</svg>
