<?xml version="1.0" encoding="UTF-8"?>
<svg xmlns="http://www.w3.org/2000/svg" xmlns:xlink="http://www.w3.org/1999/xlink" width="127px" height="126px" viewBox="0 0 127 126" version="1.1">
<g id="surface1">
<path style=" stroke:none;fill-rule:nonzero;fill:rgb(99.607843%,99.607843%,99.607843%);fill-opacity:1;" d="M 0 0 C 41.910156 0 83.820312 0 127 0 C 127 41.582031 127 83.160156 127 126 C 85.089844 126 43.179688 126 0 126 C 0 84.417969 0 42.839844 0 0 Z M 0 0 "/>
<path style=" stroke:none;fill-rule:nonzero;fill:rgb(9.411765%,24.705882%,29.411766%);fill-opacity:1;" d="M 57.488281 44.347656 C 59 44.914062 60.484375 45.191406 62.089844 45.359375 C 62.273438 44.4375 62.460938 43.511719 62.652344 42.5625 C 63.398438 42.746094 64.144531 42.929688 64.910156 43.117188 C 64.910156 43.859375 64.910156 44.597656 64.910156 45.359375 C 69.3125 44.074219 73.640625 42.648438 77.964844 41.125 C 90.054688 36.898438 104.84375 32.8125 117.40625 37.519531 C 121.152344 39.308594 123.269531 42.511719 124.765625 46.28125 C 126.84375 53.042969 125.78125 58.921875 123.613281 65.519531 C 123.421875 65.875 123.226562 66.226562 123.03125 66.59375 C 122.417969 67.898438 122.285156 68.898438 122.1875 70.328125 C 122.148438 70.816406 122.109375 71.300781 122.066406 71.800781 C 121.992188 72.816406 121.921875 73.828125 121.851562 74.84375 C 121.453125 79.636719 121.453125 79.636719 119.664062 81.761719 C 118.570312 82.503906 118.570312 82.503906 117.40625 83.019531 C 117.019531 83.195312 116.636719 83.375 116.242188 83.554688 C 113.351562 84.734375 110.558594 84.726562 107.484375 84.800781 C 104.730469 84.914062 102.910156 85.417969 100.472656 86.800781 C 96.566406 88.027344 92.890625 87.996094 88.835938 87.832031 C 86.058594 87.757812 84.796875 88.132812 82.410156 89.601562 C 78.769531 90.378906 74.933594 90.265625 71.226562 90.265625 C 70.703125 90.273438 70.179688 90.28125 69.640625 90.289062 C 69.136719 90.289062 68.628906 90.289062 68.109375 90.289062 C 67.65625 90.292969 67.207031 90.296875 66.738281 90.296875 C 65.476562 90.160156 65.476562 90.160156 64.324219 89.523438 C 63.777344 89.285156 63.777344 89.285156 63.21875 89.039062 C 62.097656 89.515625 62.097656 89.515625 60.960938 90.160156 C 59.59375 90.308594 59.59375 90.308594 58.078125 90.3125 C 57.246094 90.3125 57.246094 90.3125 56.394531 90.316406 C 55.816406 90.3125 55.238281 90.304688 54.644531 90.300781 C 54.078125 90.304688 53.511719 90.3125 52.929688 90.316406 C 44.15625 90.292969 44.15625 90.292969 41.769531 87.917969 C 40.386719 87.878906 39.054688 87.898438 37.675781 87.953125 C 32.789062 88.058594 27.3125 87.875 23.140625 85.121094 C 21.511719 85.003906 19.90625 84.941406 18.273438 84.90625 C 13.976562 84.753906 10.425781 84.328125 6.96875 81.578125 C 5.980469 80.359375 5.824219 79.414062 5.574219 77.875 C 5.484375 77.328125 5.394531 76.78125 5.300781 76.214844 C 5.082031 74.503906 4.96875 72.808594 4.867188 71.085938 C 4.667969 68.273438 4.007812 66.035156 2.84375 63.476562 C 0.375 57.914062 0.40625 51.964844 2.234375 46.183594 C 3.886719 42.296875 6.867188 38.875 10.6875 36.976562 C 25.125 31.617188 44.195312 38.867188 57.488281 44.347656 Z M 57.488281 44.347656 "/>
<path style=" stroke:none;fill-rule:nonzero;fill:rgb(80.392158%,83.529413%,85.490197%);fill-opacity:1;" d="M 55.316406 46.410156 C 62.078125 48.859375 65.585938 48.691406 72.355469 46.058594 C 82.890625 42.0625 94.15625 38.546875 105.515625 38.535156 C 105.945312 38.527344 106.375 38.523438 106.816406 38.515625 C 111.171875 38.503906 115.109375 39.121094 118.535156 42 C 121.671875 46.023438 122.585938 48.894531 122.589844 53.898438 C 122.597656 54.367188 122.605469 54.835938 122.609375 55.316406 C 122.617188 58.191406 122.292969 60.554688 121.355469 63.277344 C 121.03125 62.839844 120.703125 62.402344 120.367188 61.949219 C 118.878906 60.230469 117.808594 59.53125 115.5625 59.132812 C 111.585938 58.980469 109.101562 60.117188 106.117188 62.722656 C 105.929688 63.089844 105.742188 63.457031 105.550781 63.839844 C 105.179688 63.839844 104.804688 63.839844 104.421875 63.839844 C 104.199219 63.308594 103.980469 62.777344 103.75 62.230469 C 102.894531 60.457031 102.894531 60.457031 101.53125 59.710938 C 96.96875 58.726562 93.300781 59.433594 89.183594 61.601562 C 87.9375 62.464844 86.902344 63.359375 85.796875 64.398438 C 85.476562 63.996094 85.476562 63.996094 85.152344 63.582031 C 84.863281 63.230469 84.578125 62.875 84.277344 62.511719 C 83.855469 61.984375 83.855469 61.984375 83.425781 61.445312 C 80.992188 59.132812 78.15625 59.117188 74.949219 59.183594 C 71.136719 59.613281 68.523438 61.574219 66.039062 64.398438 C 65.667969 64.953125 65.296875 65.507812 64.910156 66.082031 C 63.570312 66.394531 63.570312 66.394531 62.089844 66.082031 C 61.308594 64.980469 60.558594 63.855469 59.832031 62.722656 C 55.8125 59.664062 52.394531 58.898438 47.414062 59.359375 C 44.429688 60.34375 43.046875 61.980469 41.203125 64.398438 C 40.929688 64.179688 40.65625 63.953125 40.375 63.726562 C 36.363281 60.578125 32.992188 59.019531 27.808594 59.203125 C 26.054688 59.417969 25.019531 59.859375 23.707031 61.039062 C 22.945312 62.480469 22.945312 62.480469 22.578125 63.839844 C 22.207031 63.839844 21.832031 63.839844 21.449219 63.839844 C 21.03125 63.410156 20.609375 62.984375 20.179688 62.546875 C 17.414062 59.863281 15.136719 59.171875 11.371094 59.191406 C 9.144531 59.5 8.089844 60.265625 6.632812 61.949219 C 6.304688 62.386719 5.980469 62.828125 5.644531 63.277344 C 3.824219 57.859375 3.21875 50.710938 5.714844 45.429688 C 7.460938 42.609375 9.816406 40.378906 12.980469 39.199219 C 27.320312 36.375 42.039062 41.585938 55.316406 46.410156 Z M 55.316406 46.410156 "/>
<path style=" stroke:none;fill-rule:nonzero;fill:rgb(98.431373%,86.274511%,68.627453%);fill-opacity:1;" d="M 52.492188 61.601562 C 55.941406 62.660156 58.566406 64.671875 60.394531 67.757812 C 62.738281 73.191406 62.59375 79.859375 62.089844 85.679688 C 61.808594 86.234375 61.808594 86.234375 61.523438 86.800781 C 59.222656 87.558594 57.089844 87.460938 54.679688 87.464844 C 54.21875 87.472656 53.757812 87.476562 53.28125 87.484375 C 50.175781 87.492188 46.949219 87.394531 44.027344 86.242188 C 42.703125 84.273438 42.753906 83.449219 42.746094 81.121094 C 42.746094 80.441406 42.746094 79.761719 42.742188 79.054688 C 42.746094 78.34375 42.753906 77.628906 42.757812 76.894531 C 42.753906 76.191406 42.746094 75.492188 42.742188 74.765625 C 42.761719 65.867188 42.761719 65.867188 45.472656 62.722656 C 47.964844 61.277344 49.679688 61.097656 52.492188 61.601562 Z M 52.492188 61.601562 "/>
<path style=" stroke:none;fill-rule:nonzero;fill:rgb(98.431373%,98.431373%,98.823529%);fill-opacity:1;" d="M 80.609375 62.296875 C 83.105469 64.28125 83.683594 65.761719 84.101562 68.878906 C 84.25 71.515625 84.257812 74.148438 84.277344 76.789062 C 84.296875 77.503906 84.3125 78.21875 84.328125 78.953125 C 84.332031 79.636719 84.335938 80.324219 84.34375 81.027344 C 84.351562 81.652344 84.359375 82.277344 84.367188 82.921875 C 84.042969 84.933594 83.464844 85.574219 81.84375 86.800781 C 78.664062 87.546875 75.367188 87.480469 72.109375 87.5 C 71.601562 87.511719 71.09375 87.523438 70.574219 87.535156 C 69.84375 87.539062 69.84375 87.539062 69.101562 87.542969 C 68.441406 87.550781 68.441406 87.550781 67.769531 87.558594 C 66.273438 87.304688 65.789062 86.898438 64.910156 85.679688 C 64.691406 84.566406 64.691406 84.566406 64.6875 83.304688 C 64.679688 82.601562 64.679688 82.601562 64.675781 81.890625 C 64.683594 81.398438 64.691406 80.90625 64.699219 80.394531 C 64.707031 79.890625 64.710938 79.386719 64.71875 78.867188 C 64.851562 73.238281 65.328125 68.316406 69.492188 64.152344 C 72.742188 61.488281 76.695312 60.574219 80.609375 62.296875 Z M 80.609375 62.296875 "/>
<path style=" stroke:none;fill-rule:nonzero;fill:rgb(97.647059%,85.882354%,68.235296%);fill-opacity:1;" d="M 31.210938 61.332031 C 34.65625 61.933594 36.953125 63.886719 39.082031 66.535156 C 40.8125 69.714844 40.308594 73.464844 40.214844 76.964844 C 40.207031 77.695312 40.195312 78.425781 40.1875 79.175781 C 40.160156 80.96875 40.121094 82.765625 40.074219 84.558594 C 36.761719 86.203125 31.65625 85.242188 28.171875 84.359375 C 26.226562 83.714844 24.640625 83.054688 23.707031 81.199219 C 23.554688 79.136719 23.574219 77.070312 23.566406 75.007812 C 23.554688 74.4375 23.542969 73.871094 23.53125 73.285156 C 23.511719 69.476562 23.609375 65.351562 26.230469 62.316406 C 27.746094 61.054688 29.308594 61.273438 31.210938 61.332031 Z M 31.210938 61.332031 "/>
<path style=" stroke:none;fill-rule:nonzero;fill:rgb(97.647059%,98.039216%,98.039216%);fill-opacity:1;" d="M 100.929688 62.402344 C 103.859375 65.8125 103.5 70.945312 103.503906 75.214844 C 103.519531 75.761719 103.53125 76.308594 103.546875 76.871094 C 103.5625 80.800781 103.5625 80.800781 102.324219 82.632812 C 97.929688 85.386719 92.542969 85.519531 87.488281 85.121094 C 85.9375 83.582031 86.761719 78.996094 86.75 76.929688 C 86.730469 76.21875 86.714844 75.507812 86.699219 74.769531 C 86.671875 70.832031 86.675781 68.105469 89.183594 64.960938 C 90.1875 63.984375 90.1875 63.984375 91.15625 63.347656 C 91.476562 63.132812 91.796875 62.914062 92.128906 62.691406 C 94.914062 61.222656 98.105469 60.972656 100.929688 62.402344 Z M 100.929688 62.402344 "/>
<path style=" stroke:none;fill-rule:nonzero;fill:rgb(98.431373%,86.666667%,68.627453%);fill-opacity:1;" d="M 12.664062 61.320312 C 15.988281 61.78125 18.039062 63.398438 20.164062 65.894531 C 21.660156 68.605469 21.226562 71.71875 21.097656 74.722656 C 21.082031 75.402344 21.066406 76.078125 21.050781 76.777344 C 21.011719 78.441406 20.953125 80.097656 20.882812 81.761719 C 19.808594 81.78125 18.734375 81.796875 17.660156 81.808594 C 17.0625 81.816406 16.464844 81.828125 15.847656 81.835938 C 12.996094 81.710938 10.527344 81.003906 8.464844 78.960938 C 8.191406 76.578125 8.257812 74.179688 8.253906 71.785156 C 8.242188 71.121094 8.226562 70.453125 8.214844 69.765625 C 8.210938 69.125 8.207031 68.480469 8.207031 67.816406 C 8.203125 67.230469 8.195312 66.644531 8.191406 66.039062 C 8.664062 63.226562 9.808594 61.734375 12.664062 61.320312 Z M 12.664062 61.320312 "/>
<path style=" stroke:none;fill-rule:nonzero;fill:rgb(98.823529%,99.215686%,99.215686%);fill-opacity:1;" d="M 116.277344 61.601562 C 117.816406 62.855469 118.464844 63.882812 118.730469 65.851562 C 118.796875 67.628906 118.785156 69.382812 118.746094 71.152344 C 118.746094 71.765625 118.742188 72.375 118.742188 73.003906 C 118.683594 78.191406 118.683594 78.191406 117.40625 80.078125 C 114.605469 81.519531 112.488281 81.847656 109.339844 81.804688 C 108.734375 81.796875 108.128906 81.792969 107.503906 81.785156 C 107.046875 81.777344 106.589844 81.769531 106.117188 81.761719 C 106 79.429688 105.929688 77.09375 105.867188 74.757812 C 105.835938 74.101562 105.800781 73.445312 105.769531 72.769531 C 105.703125 69.402344 105.742188 67.164062 108.015625 64.539062 C 110.480469 62.144531 112.773438 61.082031 116.277344 61.601562 Z M 116.277344 61.601562 "/>
<path style=" stroke:none;fill-rule:nonzero;fill:rgb(9.411765%,24.313726%,29.019609%);fill-opacity:1;" d="M 90.875 6.15625 C 92.164062 6.011719 92.164062 6.011719 93.699219 6.15625 C 94.71875 7.183594 94.71875 7.183594 95.636719 8.542969 C 97.253906 10.773438 98.628906 12.097656 101.035156 13.441406 C 101.035156 14.628906 101.035156 14.628906 100.472656 16.238281 C 99.390625 17.15625 98.25 17.933594 97.078125 18.726562 C 95.96875 19.589844 95.414062 20.285156 94.722656 21.488281 C 93.699219 22.957031 93.699219 22.957031 92.320312 23.449219 C 90.265625 22.753906 89.867188 21.457031 88.84375 19.625 C 87.589844 17.808594 86.085938 17.164062 84.101562 16.238281 C 83.820312 14.734375 83.820312 14.734375 84.101562 12.878906 C 85.164062 12.066406 86.285156 11.480469 87.460938 10.847656 C 89.308594 9.621094 89.945312 8.121094 90.875 6.15625 Z M 90.875 6.15625 "/>
<path style=" stroke:none;fill-rule:nonzero;fill:rgb(9.803922%,24.313726%,29.019609%);fill-opacity:1;" d="M 107.808594 18.476562 C 109.042969 18.234375 109.042969 18.234375 110.632812 18.476562 C 111.445312 19.40625 112.074219 20.390625 112.738281 21.425781 C 113.457031 22.542969 113.457031 22.542969 115.039062 23.3125 C 116.277344 24.078125 116.277344 24.078125 116.699219 25.410156 C 116.121094 27.417969 115.039062 27.882812 113.304688 28.96875 C 112.179688 29.6875 112.179688 29.6875 111.40625 31.253906 C 110.632812 32.480469 110.632812 32.480469 109.289062 32.898438 C 107.265625 32.324219 106.796875 31.253906 105.703125 29.535156 C 104.980469 28.414062 104.980469 28.414062 103.398438 27.652344 C 102.164062 26.878906 102.164062 26.878906 101.8125 25.480469 C 102.164062 24.078125 102.164062 24.078125 103.503906 23.066406 C 104.988281 22.398438 104.988281 22.398438 106.117188 22.398438 C 106.289062 21.960938 106.464844 21.519531 106.644531 21.070312 C 107.246094 19.597656 107.246094 19.597656 107.808594 18.476562 Z M 107.808594 18.476562 "/>
<path style=" stroke:none;fill-rule:nonzero;fill:rgb(95.294118%,84.313726%,67.058825%);fill-opacity:1;" d="M 92.003906 10.082031 C 92.378906 10.082031 92.75 10.082031 93.132812 10.082031 C 93.390625 10.519531 93.644531 10.957031 93.910156 11.410156 C 94.871094 12.949219 95.417969 13.371094 97.085938 14 C 97.085938 14.371094 97.085938 14.738281 97.085938 15.117188 C 96.421875 15.503906 96.421875 15.503906 95.742188 15.890625 C 94.191406 16.84375 93.765625 17.386719 93.132812 19.039062 C 92.761719 19.039062 92.386719 19.039062 92.003906 19.039062 C 91.050781 17.929688 90.113281 16.808594 89.183594 15.679688 C 88.808594 15.496094 88.4375 15.3125 88.054688 15.117188 C 88.054688 14.75 88.054688 14.382812 88.054688 14 C 89.171875 13.054688 90.300781 12.121094 91.441406 11.199219 C 91.625 10.832031 91.8125 10.460938 92.003906 10.082031 Z M 92.003906 10.082031 "/>
<path style=" stroke:none;fill-rule:nonzero;fill:rgb(8.627451%,23.137255%,28.235295%);fill-opacity:1;" d="M 62.652344 105.839844 C 63.769531 106.117188 63.769531 106.117188 64.910156 106.402344 C 64.910156 108.246094 64.910156 110.09375 64.910156 112 C 64.167969 112.183594 63.421875 112.371094 62.652344 112.558594 C 62.089844 112 62.089844 112 62.015625 110.738281 C 62.015625 110.230469 62.015625 109.722656 62.019531 109.199219 C 62.015625 108.691406 62.015625 108.183594 62.015625 107.660156 C 62.089844 106.402344 62.089844 106.402344 62.652344 105.839844 Z M 62.652344 105.839844 "/>
<path style=" stroke:none;fill-rule:nonzero;fill:rgb(7.058824%,22.352941%,27.450982%);fill-opacity:1;" d="M 62.652344 58.242188 C 63.769531 58.515625 63.769531 58.515625 64.910156 58.800781 C 64.910156 60.648438 64.910156 62.496094 64.910156 64.398438 C 64.167969 64.585938 63.421875 64.769531 62.652344 64.960938 C 62.089844 64.398438 62.089844 64.398438 62.015625 63.140625 C 62.015625 62.632812 62.015625 62.125 62.019531 61.601562 C 62.015625 61.09375 62.015625 60.582031 62.015625 60.058594 C 62.089844 58.800781 62.089844 58.800781 62.652344 58.242188 Z M 62.652344 58.242188 "/>
<path style=" stroke:none;fill-rule:nonzero;fill:rgb(6.666667%,22.352941%,27.450982%);fill-opacity:1;" d="M 62.652344 50.402344 C 63.769531 50.675781 63.769531 50.675781 64.910156 50.957031 C 64.910156 52.808594 64.910156 54.65625 64.910156 56.558594 C 64.167969 56.746094 63.421875 56.929688 62.652344 57.121094 C 62.089844 56.558594 62.089844 56.558594 62.015625 55.300781 C 62.015625 54.792969 62.015625 54.285156 62.019531 53.761719 C 62.015625 53.253906 62.015625 52.746094 62.015625 52.21875 C 62.089844 50.957031 62.089844 50.957031 62.652344 50.402344 Z M 62.652344 50.402344 "/>
<path style=" stroke:none;fill-rule:nonzero;fill:rgb(7.058824%,21.568628%,26.666668%);fill-opacity:1;" d="M 62.652344 34.71875 C 63.769531 34.996094 63.769531 34.996094 64.910156 35.277344 C 64.910156 37.128906 64.910156 38.976562 64.910156 40.878906 C 64.167969 41.066406 63.421875 41.25 62.652344 41.441406 C 62.089844 40.878906 62.089844 40.878906 62.015625 39.621094 C 62.015625 39.113281 62.015625 38.605469 62.019531 38.082031 C 62.015625 37.574219 62.015625 37.066406 62.015625 36.539062 C 62.089844 35.277344 62.089844 35.277344 62.652344 34.71875 Z M 62.652344 34.71875 "/>
<path style=" stroke:none;fill-rule:nonzero;fill:rgb(7.450981%,21.960784%,27.058825%);fill-opacity:1;" d="M 62.652344 26.878906 C 63.769531 27.15625 63.769531 27.15625 64.910156 27.4375 C 64.910156 29.285156 64.910156 31.136719 64.910156 33.039062 C 64.167969 33.222656 63.421875 33.410156 62.652344 33.601562 C 62.089844 33.039062 62.089844 33.039062 62.015625 31.777344 C 62.015625 31.269531 62.015625 30.761719 62.019531 30.242188 C 62.015625 29.734375 62.015625 29.226562 62.015625 28.703125 C 62.089844 27.4375 62.089844 27.4375 62.652344 26.878906 Z M 62.652344 26.878906 "/>
<path style=" stroke:none;fill-rule:nonzero;fill:rgb(10.980392%,25.490198%,30.19608%);fill-opacity:1;" d="M 62.652344 19.039062 C 63.769531 19.316406 63.769531 19.316406 64.910156 19.597656 C 64.910156 21.445312 64.910156 23.296875 64.910156 25.199219 C 64.167969 25.382812 63.421875 25.570312 62.652344 25.761719 C 62.089844 25.199219 62.089844 25.199219 62.015625 23.9375 C 62.015625 23.429688 62.015625 22.921875 62.019531 22.398438 C 62.015625 21.894531 62.015625 21.386719 62.015625 20.863281 C 62.089844 19.597656 62.089844 19.597656 62.652344 19.039062 Z M 62.652344 19.039062 "/>
<path style=" stroke:none;fill-rule:nonzero;fill:rgb(93.725491%,83.529413%,66.666669%);fill-opacity:1;" d="M 108.9375 22.398438 C 110.054688 23.324219 111.171875 24.25 112.324219 25.199219 C 111.394531 26.3125 110.460938 27.417969 109.503906 28.558594 C 108.382812 27.636719 107.265625 26.714844 106.117188 25.761719 C 107.046875 24.652344 107.976562 23.542969 108.9375 22.398438 Z M 108.9375 22.398438 "/>
<path style=" stroke:none;fill-rule:nonzero;fill:rgb(6.27451%,21.176471%,26.274511%);fill-opacity:1;" d="M 62.089844 90.160156 C 63.019531 90.160156 63.953125 90.160156 64.910156 90.160156 C 64.910156 92.007812 64.910156 93.855469 64.910156 95.757812 C 64.167969 95.945312 63.421875 96.128906 62.652344 96.320312 C 62.089844 95.757812 62.089844 95.757812 62.035156 94.480469 C 62.039062 93.964844 62.046875 93.453125 62.054688 92.925781 C 62.058594 92.410156 62.0625 91.894531 62.070312 91.363281 C 62.074219 90.96875 62.082031 90.570312 62.089844 90.160156 Z M 62.089844 90.160156 "/>
<path style=" stroke:none;fill-rule:nonzero;fill:rgb(5.490196%,20.392157%,25.490198%);fill-opacity:1;" d="M 62.652344 98 C 63.769531 98.277344 63.769531 98.277344 64.910156 98.5625 C 64.910156 100.222656 64.910156 101.886719 64.910156 103.601562 C 63.980469 103.785156 63.046875 103.96875 62.089844 104.160156 C 62.074219 103.238281 62.0625 102.316406 62.054688 101.394531 C 62.046875 100.882812 62.039062 100.367188 62.035156 99.839844 C 62.089844 98.5625 62.089844 98.5625 62.652344 98 Z M 62.652344 98 "/>
<path style=" stroke:none;fill-rule:nonzero;fill:rgb(2.745098%,17.254902%,22.745098%);fill-opacity:1;" d="M 62.652344 19.039062 C 63.769531 19.316406 63.769531 19.316406 64.910156 19.597656 C 64.910156 21.265625 64.910156 22.925781 64.910156 24.640625 C 64.726562 24.640625 64.539062 24.640625 64.347656 24.640625 C 64.347656 23.160156 64.347656 21.683594 64.347656 20.160156 C 63.789062 20.433594 63.789062 20.433594 63.21875 20.71875 C 62.988281 22.019531 62.796875 23.328125 62.652344 24.640625 C 62.46875 24.640625 62.28125 24.640625 62.089844 24.640625 C 62.074219 23.8125 62.0625 22.980469 62.054688 22.15625 C 62.046875 21.695312 62.039062 21.234375 62.035156 20.757812 C 62.089844 19.597656 62.089844 19.597656 62.652344 19.039062 Z M 62.652344 19.039062 "/>
</g>
</svg>
