<?xml version="1.0" encoding="UTF-8"?>
<svg xmlns="http://www.w3.org/2000/svg" xmlns:xlink="http://www.w3.org/1999/xlink" width="46px" height="46px" viewBox="0 0 46 46" version="1.1">
<g id="surface1">
<path style=" stroke:none;fill-rule:nonzero;fill:rgb(99.607843%,99.607843%,99.607843%);fill-opacity:1;" d="M -5.609375 -7.917969 C 80.769531 -7.917969 167.144531 -7.917969 256.140625 -7.917969 C 256.140625 12.472656 256.140625 32.859375 256.140625 53.863281 C 169.761719 53.863281 83.386719 53.863281 -5.609375 53.863281 C -5.609375 33.476562 -5.609375 13.089844 -5.609375 -7.917969 Z M -5.609375 -7.917969 "/>
<path style=" stroke:none;fill-rule:nonzero;fill:rgb(95.686275%,95.686275%,95.686275%);fill-opacity:1;" d="M 0.195312 -0.0078125 C 15.203125 -0.0078125 30.214844 -0.0078125 45.675781 -0.0078125 C 45.675781 15.160156 45.675781 30.328125 45.675781 45.953125 C 30.667969 45.953125 15.660156 45.953125 0.195312 45.953125 C 0.195312 30.785156 0.195312 15.617188 0.195312 -0.0078125 Z M 0.195312 -0.0078125 "/>
<path style=" stroke:none;fill-rule:nonzero;fill:rgb(12.54902%,54.509807%,79.607844%);fill-opacity:1;" d="M 34.066406 17.289062 C 36.734375 17.109375 36.734375 17.109375 37.769531 17.914062 C 38.953125 19.480469 38.804688 21.300781 38.902344 23.21875 C 38.941406 23.691406 38.976562 24.164062 39.015625 24.652344 C 39.039062 25.125 39.058594 25.601562 39.085938 26.09375 C 39.109375 26.535156 39.132812 26.976562 39.15625 27.429688 C 38.902344 28.65625 38.902344 28.65625 37.886719 29.796875 C 36.179688 30.8125 35.148438 30.839844 33.1875 30.757812 C 32.625 30.738281 32.0625 30.722656 31.484375 30.703125 C 31.058594 30.679688 30.632812 30.65625 30.195312 30.632812 C 30.21875 31.410156 30.21875 31.410156 30.246094 32.203125 C 30.257812 32.886719 30.273438 33.566406 30.285156 34.246094 C 30.296875 34.589844 30.308594 34.929688 30.320312 35.28125 C 30.355469 37.804688 30.355469 37.804688 29.554688 38.996094 C 26.855469 40.773438 22.949219 40.261719 19.886719 39.890625 C 18.453125 39.554688 17.714844 39.164062 16.796875 37.984375 C 15.394531 34.84375 16.207031 30.109375 17.222656 26.867188 C 18.285156 24.839844 19.144531 24.003906 21 22.726562 C 22.0625 22.414062 22.0625 22.414062 22.9375 22.230469 C 22.640625 22.554688 22.640625 22.554688 22.335938 22.882812 C 19.792969 25.753906 18.949219 28.03125 18.984375 31.898438 C 19.089844 33.460938 19.332031 35.011719 19.550781 36.566406 C 22.105469 36.566406 24.660156 36.566406 27.289062 36.566406 C 27.214844 35.050781 27.214844 35.050781 27.140625 33.507812 C 27.160156 31.476562 27.195312 30.339844 28.078125 28.503906 C 30.808594 27.109375 33.464844 27.523438 36.484375 27.667969 C 36.644531 24.570312 36.804688 21.472656 36.96875 18.277344 C 36.007812 18.113281 35.050781 17.953125 34.066406 17.785156 C 34.066406 17.621094 34.066406 17.457031 34.066406 17.289062 Z M 34.066406 17.289062 "/>
<path style=" stroke:none;fill-rule:nonzero;fill:rgb(11.764706%,54.11765%,79.607844%);fill-opacity:1;" d="M 22.453125 7.21875 C 23.039062 7.21875 23.039062 7.21875 23.636719 7.222656 C 25.609375 7.25 27.019531 7.316406 28.742188 8.394531 C 29.457031 9.855469 29.253906 11.230469 29.226562 12.839844 C 28.90625 12.679688 28.585938 12.515625 28.257812 12.347656 C 28.019531 11.125 28.019531 11.125 27.773438 9.875 C 24.902344 9.875 22.027344 9.875 19.066406 9.875 C 19.160156 12.226562 19.160156 12.226562 19.285156 14.578125 C 19.320312 16.34375 19.1875 17.144531 18.054688 18.496094 C 15.582031 19.851562 13.128906 19.644531 10.355469 19.761719 C 10.355469 22.535156 10.355469 25.304688 10.355469 28.164062 C 11.472656 28.324219 12.59375 28.488281 13.742188 28.65625 C 13.742188 28.984375 13.742188 29.308594 13.742188 29.644531 C 12.957031 29.683594 12.171875 29.714844 11.386719 29.738281 C 10.945312 29.753906 10.507812 29.773438 10.058594 29.789062 C 9.488281 29.71875 9.488281 29.71875 8.90625 29.644531 C 7.3125 27.207031 7.355469 24.84375 7.304688 21.953125 C 7.285156 21.3125 7.265625 20.667969 7.246094 20.007812 C 7.453125 18.277344 7.453125 18.277344 8.226562 17.082031 C 9.742188 16.0625 10.851562 16.003906 12.65625 15.929688 C 13.222656 15.902344 13.789062 15.875 14.371094 15.84375 C 14.804688 15.832031 15.234375 15.820312 15.679688 15.808594 C 15.691406 15.367188 15.703125 14.925781 15.71875 14.472656 C 15.746094 13.890625 15.773438 13.3125 15.800781 12.71875 C 15.824219 12.144531 15.84375 11.570312 15.867188 10.980469 C 16.164062 9.382812 16.164062 9.382812 16.882812 8.195312 C 18.703125 7.011719 20.339844 7.152344 22.453125 7.21875 Z M 22.453125 7.21875 "/>
<path style=" stroke:none;fill-rule:nonzero;fill:rgb(27.450982%,78.431374%,73.333335%);fill-opacity:1;" d="M 30.675781 13.828125 C 31.742188 14.257812 31.742188 14.257812 32.613281 14.820312 C 32.976562 22.964844 32.976562 22.964844 30.519531 25.984375 C 27.929688 28.375 25.351562 28.796875 21.96875 28.65625 C 21.808594 28.332031 21.648438 28.003906 21.484375 27.667969 C 21.847656 27.554688 22.207031 27.441406 22.582031 27.324219 C 26.316406 26.15625 26.316406 26.15625 28.742188 23.21875 C 29.15625 21.75 29.464844 20.28125 29.710938 18.773438 C 29.464844 18.875 29.214844 18.976562 28.960938 19.078125 C 26.242188 20.109375 23.75 20.46875 20.855469 20.597656 C 19.53125 20.75 18.722656 20.988281 17.613281 21.738281 C 16.992188 22.992188 16.992188 22.992188 16.648438 24.207031 C 16.328125 24.207031 16.007812 24.207031 15.679688 24.207031 C 15.792969 22.226562 15.9375 21.042969 17.144531 19.457031 C 18.941406 17.984375 20.378906 17.6875 22.605469 17.289062 C 25.035156 16.796875 27.070312 16.359375 29.136719 14.878906 C 29.644531 14.535156 30.152344 14.1875 30.675781 13.828125 Z M 30.675781 13.828125 "/>
</g>
</svg>
